<svg xmlns="http://www.w3.org/2000/svg" xmlns:xlink="http://www.w3.org/1999/xlink" version="1.1" x="0px" y="0px" viewBox="0 0 100 125" style="enable-background:new 0 0 100 100;" xml:space="preserve"><style type="text/css">
	.st0{enable-background:new    ;}
</style><g><path d="M40.7,18.1c-12.4,0-22.5,10.1-22.5,22.5c0,2.1,1.7,3.8,3.8,3.8s3.8-1.7,3.8-3.8c0-8.3,6.7-15,15-15c2.1,0,3.8-1.7,3.8-3.8   S42.7,18.1,40.7,18.1z"/><path d="M92.1,77.4l-20-20c2.7-5,4.2-10.7,4.2-16.8C76.3,21,60.3,5,40.7,5S5,21,5,40.7s16,35.7,35.7,35.7c6.1,0,11.8-1.5,16.8-4.2   l20,20c1.8,1.8,4.6,2.9,7.5,2.9c2.6,0,5.2-0.9,7.2-2.9C96.3,87.9,95.6,80.9,92.1,77.4z M12.5,40.7c0-15.5,12.6-28.2,28.2-28.2   s28.2,12.6,28.2,28.2S56.2,68.8,40.7,68.8S12.5,56.2,12.5,40.7z M86.8,86.8c-1.2,1.2-3.6,0.5-4.1,0l-19-19c1.5-1.2,2.8-2.6,4.1-4.1   l19,19C87.3,83.2,88,85.6,86.8,86.8z"/></g><text x="0" y="115" fill="#000000" font-size="5px" font-weight="bold" font-family="'Helvetica Neue', Helvetica, Arial-Unicode, Arial, Sans-serif">Created by Ferma</text><text x="0" y="120" fill="#000000" font-size="5px" font-weight="bold" font-family="'Helvetica Neue', Helvetica, Arial-Unicode, Arial, Sans-serif">from the Noun Project</text></svg>